# xmcd
#
# Track frame offsets:
#	150
#	21902
#	36972
#	53380
#	78075
#	99822
#	118862
#	132275
#	158822
#	176945
#	198372
#	220535
#
# Disc length: 3189 seconds
#
# Revision: 0
# Processed by: cddbd v1.5.2PL0 Copyright (c) Steve Scherf et al.
# Submitted via: EZCDAudioConverter 8.0.2.1
#
DISCID=940c730c
DTITLE=Various Artist - Dạ Vũ Yêu Đương 1
DYEAR=1996
DGENRE=Disco
TTITLE0=Minh Xuân - Tràn ngập tim tôi
TTITLE1=Thư Lê - Cho tôi được một lần
TTITLE2=Lucia Kim Chi - Chiều mưa biên giới
TTITLE3=Tuấn Ngọc - Tiễn em
TTITLE4=Minh Duc - Rong chơi cuối trời quên lãng
TTITLE5=Lưu Hồng - Phố buồn
TTITLE6=Nhu Mai - Môi tím
TTITLE7=Julie - Bao giờ biết tương tư
TTITLE8=Elvis Phương - Đến với em đêm này
TTITLE9=Ngọc Lan - Như cánh vạc bay
TTITLE10=Kiều Nga - Mộng phù du
TTITLE11=Thụy Du - Tình yêu thủy thủ
EXTD=
EXTT0=
EXTT1=
EXTT2=
EXTT3=
EXTT4=
EXTT5=
EXTT6=
EXTT7=
EXTT8=
EXTT9=
EXTT10=
EXTT11=
PLAYORDER=
